<svg width="343" height="722" viewBox="0 0 343 722" fill="none" xmlns="http://www.w3.org/2000/svg">
<rect x="1" y="64" width="2.75741" height="80" fill="#C4C4C4" stroke="#373737"/>
<rect x="1" y="170" width="2.75741" height="80" fill="#C4C4C4" stroke="#373737"/>
<rect x="339.243" y="107" width="2.75741" height="100" fill="#C4C4C4" stroke="#373737"/>
<path fill-rule="evenodd" clip-rule="evenodd" d="M27.7574 1C14.5026 1 3.75742 11.7452 3.75742 25V697C3.75742 710.255 14.5026 721 27.7574 721H315.243C328.497 721 339.243 710.255 339.243 697V25C339.243 11.7452 328.497 1 315.243 1H27.7574ZM22.434 9C14.1497 9 7.43396 15.7157 7.43396 24V698C7.43396 706.284 14.1497 713 22.434 713H320.566C328.85 713 335.566 706.284 335.566 698V24C335.566 15.7157 328.85 9 320.566 9H22.434Z" fill="#8E8E8E"/>
<path d="M4.75742 25C4.75742 12.2975 15.0549 2 27.7574 2V0C13.9503 0 2.75742 11.1929 2.75742 25H4.75742ZM4.75742 697V25H2.75742V697H4.75742ZM27.7574 720C15.0549 720 4.75742 709.703 4.75742 697H2.75742C2.75742 710.807 13.9503 722 27.7574 722V720ZM315.243 720H27.7574V722H315.243V720ZM338.243 697C338.243 709.703 327.945 720 315.243 720V722C329.05 722 340.243 710.807 340.243 697H338.243ZM338.243 25V697H340.243V25H338.243ZM315.243 2C327.945 2 338.243 12.2975 338.243 25H340.243C340.243 11.1929 329.05 0 315.243 0V2ZM27.7574 2H315.243V0H27.7574V2ZM8.43396 24C8.43396 16.268 14.702 10 22.434 10V8C13.5974 8 6.43396 15.1634 6.43396 24H8.43396ZM8.43396 698V24H6.43396V698H8.43396ZM22.434 712C14.702 712 8.43396 705.732 8.43396 698H6.43396C6.43396 706.837 13.5974 714 22.434 714V712ZM320.566 712H22.434V714H320.566V712ZM334.566 698C334.566 705.732 328.298 712 320.566 712V714C329.403 714 336.566 706.837 336.566 698H334.566ZM334.566 24V698H336.566V24H334.566ZM320.566 10C328.298 10 334.566 16.268 334.566 24H336.566C336.566 15.1634 329.403 8 320.566 8V10ZM22.434 10H320.566V8H22.434V10Z" fill="#373737"/>
<path opacity="0.39" d="M309.587 2L321 8L21 8L34.0435 2L309.587 2Z" fill="white"/>
<path opacity="0.39" d="M32.413 720L21 714H321L307.957 720H32.413Z" fill="white"/>
</svg>
