<svg width="62" height="65" viewBox="0 0 62 65" fill="none" xmlns="http://www.w3.org/2000/svg">
<rect width="61.1765" height="65" rx="10" fill="url(#paint0_linear_202_2)"/>
<g clip-path="url(#clip0_202_2)">
<g filter="url(#filter0_d_202_2)">
<path d="M31 52C19.954 52 11 43.046 11 32C11 20.954 19.954 12 31 12C42.046 12 51 20.954 51 32C50.988 43.04 42.04 51.988 31 52ZM22.454 37.574C22.196 37.574 21.94 37.606 21.688 37.666L21.388 37.748L20.2 39.782C19.983 40.144 19.9133 40.5754 20.0054 40.9873C20.0974 41.3992 20.3441 41.76 20.6945 41.9951C21.045 42.2303 21.4724 42.3219 21.8884 42.2509C22.3044 42.18 22.6773 41.952 22.93 41.614L23.054 41.428L24.634 38.686C24.3779 38.3435 24.0461 38.0649 23.6644 37.872C23.2828 37.6791 22.8616 37.5771 22.434 37.574H22.454ZM33.422 25.32C32.7997 25.9045 32.3872 26.6777 32.248 27.52C32.025 28.6815 32.2387 29.8844 32.848 30.898L38.928 41.43C39.1396 41.786 39.477 42.0497 39.8736 42.169C40.2702 42.2882 40.6972 42.2543 41.07 42.074C41.4418 41.8906 41.7307 41.5738 41.879 41.1867C42.0273 40.7996 42.0241 40.3708 41.87 39.986L41.772 39.786L40.172 37.004H42.552C42.9688 37.0005 43.3688 36.839 43.6711 36.5521C43.9735 36.2653 44.1558 35.8743 44.1812 35.4583C44.2065 35.0423 44.0731 34.6321 43.8079 34.3106C43.5426 33.989 43.1653 33.7801 42.752 33.726L42.552 33.714H38.272L33.884 26.114L33.426 25.314L33.422 25.32V25.32ZM19.52 33.7C19.3051 33.7005 19.0924 33.7434 18.8941 33.8263C18.6958 33.9091 18.5157 34.0303 18.3643 34.1828C18.2129 34.3354 18.0931 34.5163 18.0117 34.7152C17.9303 34.9141 17.8889 35.1271 17.89 35.342C17.89 36.17 18.506 36.87 19.328 36.976L19.528 36.986H34.488C34.6536 36.6535 34.7369 36.2862 34.731 35.9149C34.725 35.5435 34.6301 35.179 34.454 34.852C34.3043 34.5456 34.0811 34.2811 33.8044 34.0818C33.5277 33.8826 33.206 33.7548 32.868 33.71L32.626 33.698H27.524L34.58 21.48C34.7973 21.1013 34.8563 20.652 34.744 20.23C34.6641 19.9339 34.5032 19.6659 34.2793 19.4562C34.0554 19.2466 33.7775 19.1036 33.4767 19.0433C33.176 18.983 32.8644 19.0079 32.577 19.1151C32.2896 19.2223 32.0378 19.4075 31.85 19.65L31.726 19.834L31 21.102L30.282 19.834C30.0704 19.4775 29.7326 19.2134 29.3355 19.0942C28.9384 18.9749 28.5111 19.0091 28.138 19.19C27.7664 19.3741 27.4778 19.6914 27.3295 20.0786C27.1813 20.4659 27.1843 20.8948 27.338 21.28L27.436 21.48L29.096 24.4L23.726 33.7H19.52Z" fill="white"/>
</g>
</g>
<defs>
<filter id="filter0_d_202_2" x="7" y="10" width="48" height="48" filterUnits="userSpaceOnUse" color-interpolation-filters="sRGB">
<feFlood flood-opacity="0" result="BackgroundImageFix"/>
<feColorMatrix in="SourceAlpha" type="matrix" values="0 0 0 0 0 0 0 0 0 0 0 0 0 0 0 0 0 0 127 0" result="hardAlpha"/>
<feOffset dy="2"/>
<feGaussianBlur stdDeviation="2"/>
<feComposite in2="hardAlpha" operator="out"/>
<feColorMatrix type="matrix" values="0 0 0 0 0 0 0 0 0 0 0 0 0 0 0 0 0 0 0.25 0"/>
<feBlend mode="normal" in2="BackgroundImageFix" result="effect1_dropShadow_202_2"/>
<feBlend mode="normal" in="SourceGraphic" in2="effect1_dropShadow_202_2" result="shape"/>
</filter>
<linearGradient id="paint0_linear_202_2" x1="30.5882" y1="0" x2="30.5882" y2="65" gradientUnits="userSpaceOnUse">
<stop stop-color="#60C2E1"/>
<stop offset="1" stop-color="#1874CA"/>
</linearGradient>
<clipPath id="clip0_202_2">
<rect width="48" height="48" fill="white" transform="translate(7 8)"/>
</clipPath>
</defs>
</svg>
