<svg width="62" height="65" viewBox="0 0 62 65" fill="none" xmlns="http://www.w3.org/2000/svg">
<rect x="0.176453" width="61.1765" height="65" rx="10" fill="url(#paint0_linear_203_2)"/>
<rect x="10" y="10" width="42" height="43" rx="8" fill="#242424"/>
<path d="M19.0893 14.5098C19.6801 13.9579 20.4813 13.6479 21.3167 13.6479H40.2167C41.0522 13.6479 41.8534 13.9579 42.4441 14.5098C43.0348 15.0616 43.3667 15.8101 43.3667 16.5905C43.3667 17.3709 43.0348 18.1194 42.4441 18.6713C41.8534 19.2231 41.0522 19.5331 40.2167 19.5331H21.3167C20.4813 19.5331 19.6801 19.2231 19.0893 18.6713C18.4986 18.1194 18.1667 17.3709 18.1667 16.5905C18.1667 15.8101 18.4986 15.0616 19.0893 14.5098Z" fill="#C8C8C8"/>
<path d="M42.4442 35.108C41.8534 34.5562 41.0522 34.2461 40.2168 34.2461C39.3813 34.2461 38.5801 34.5562 37.9894 35.108C37.3986 35.6599 37.0668 36.4083 37.0668 37.1887V46.0166C37.0668 46.797 37.3986 47.5454 37.9894 48.0973C38.5801 48.6491 39.3813 48.9592 40.2168 48.9592C41.0522 48.9592 41.8534 48.6491 42.4442 48.0973C43.0349 47.5454 43.3668 46.797 43.3668 46.0166V37.1887C43.3668 36.4083 43.0349 35.6599 42.4442 35.108Z" fill="#3A97EE"/>
<path d="M28.5393 43.9358C29.1301 43.384 29.9313 43.074 30.7667 43.074H30.7982C31.6337 43.074 32.4349 43.384 33.0256 43.9358C33.6164 44.4877 33.9482 45.2361 33.9482 46.0166C33.9482 46.797 33.6164 47.5455 33.0256 48.0973C32.4349 48.6491 31.6337 48.9592 30.7982 48.9592H30.7667C29.9313 48.9592 29.1301 48.6491 28.5393 48.0973C27.9486 47.5455 27.6167 46.797 27.6167 46.0166C27.6167 45.2361 27.9486 44.4877 28.5393 43.9358Z" fill="#C8C8C8"/>
<path d="M19.0893 43.9358C18.4986 44.4877 18.1667 45.2361 18.1667 46.0166C18.1667 46.797 18.4986 47.5455 19.0893 48.0973C19.6801 48.6491 20.4813 48.9592 21.3167 48.9592H21.3482C22.1837 48.9592 22.9849 48.6491 23.5756 48.0973C24.1663 47.5455 24.4982 46.797 24.4982 46.0166C24.4982 45.2361 24.1663 44.4877 23.5756 43.9358C22.9849 43.384 22.1837 43.074 21.3482 43.074H21.3167C20.4813 43.074 19.6801 43.384 19.0893 43.9358Z" fill="#C8C8C8"/>
<path d="M19.0893 35.108C19.6801 34.5562 20.4813 34.2461 21.3167 34.2461H21.3482C22.1837 34.2461 22.9849 34.5562 23.5756 35.108C24.1663 35.6599 24.4982 36.4083 24.4982 37.1887C24.4982 37.9692 24.1663 38.7176 23.5756 39.2695C22.9849 39.8213 22.1837 40.1314 21.3482 40.1314H21.3167C20.4813 40.1314 19.6801 39.8213 19.0893 39.2695C18.4986 38.7176 18.1667 37.9692 18.1667 37.1887C18.1667 36.4083 18.4986 35.6599 19.0893 35.108Z" fill="#C8C8C8"/>
<path d="M28.5393 35.108C27.9486 35.6599 27.6167 36.4083 27.6167 37.1887C27.6167 37.9692 27.9486 38.7176 28.5393 39.2695C29.1301 39.8213 29.9313 40.1314 30.7667 40.1314H30.7982C31.6337 40.1314 32.4349 39.8213 33.0256 39.2695C33.6164 38.7176 33.9482 37.9692 33.9482 37.1887C33.9482 36.4083 33.6164 35.6599 33.0256 35.108C32.4349 34.5562 31.6337 34.2461 30.7982 34.2461H30.7667C29.9313 34.2461 29.1301 34.5562 28.5393 35.108Z" fill="#C8C8C8"/>
<path d="M37.9894 26.2802C38.5801 25.7284 39.3813 25.4183 40.2168 25.4183H40.2483C41.0837 25.4183 41.8849 25.7284 42.4757 26.2802C43.0664 26.832 43.3983 27.5805 43.3983 28.3609C43.3983 29.1414 43.0664 29.8898 42.4757 30.4417C41.8849 30.9935 41.0837 31.3035 40.2483 31.3035H40.2168C39.3813 31.3035 38.5801 30.9935 37.9894 30.4417C37.3986 29.8898 37.0668 29.1414 37.0668 28.3609C37.0668 27.5805 37.3986 26.832 37.9894 26.2802Z" fill="#3997EE"/>
<path d="M28.5393 26.2802C27.9486 26.832 27.6167 27.5805 27.6167 28.3609C27.6167 29.1414 27.9486 29.8898 28.5393 30.4417C29.1301 30.9935 29.9313 31.3035 30.7667 31.3035H30.7982C31.6337 31.3035 32.4349 30.9935 33.0256 30.4417C33.6164 29.8898 33.9482 29.1414 33.9482 28.3609C33.9482 27.5805 33.6164 26.832 33.0256 26.2802C32.4349 25.7284 31.6337 25.4183 30.7982 25.4183H30.7667C29.9313 25.4183 29.1301 25.7284 28.5393 26.2802Z" fill="#C8C8C8"/>
<path d="M19.0893 26.2802C19.6801 25.7284 20.4813 25.4183 21.3167 25.4183H21.3482C22.1837 25.4183 22.9849 25.7284 23.5756 26.2802C24.1663 26.832 24.4982 27.5805 24.4982 28.3609C24.4982 29.1414 24.1663 29.8898 23.5756 30.4417C22.9849 30.9935 22.1837 31.3035 21.3482 31.3035H21.3167C20.4813 31.3035 19.6801 30.9935 19.0893 30.4417C18.4986 29.8898 18.1667 29.1414 18.1667 28.3609C18.1667 27.5805 18.4986 26.832 19.0893 26.2802Z" fill="#C8C8C8"/>
<defs>
<linearGradient id="paint0_linear_203_2" x1="30.7647" y1="0" x2="30.7647" y2="65" gradientUnits="userSpaceOnUse">
<stop stop-color="#D8D8D8"/>
<stop offset="1" stop-color="#A9A9A9"/>
</linearGradient>
</defs>
</svg>
