<svg width="62" height="65" viewBox="0 0 62 65" fill="none" xmlns="http://www.w3.org/2000/svg">
<rect x="0.823547" width="61.1765" height="65" rx="10" fill="url(#paint0_linear_4_18)"/>
<g clip-path="url(#clip0_4_18)">
<g filter="url(#filter0_d_4_18)">
<path d="M31.5 27.875C28.4512 27.875 25.875 30.4512 25.875 33.5C25.875 36.5488 28.4512 39.125 31.5 39.125C34.5488 39.125 37.125 36.5488 37.125 33.5C37.125 30.4512 34.5488 27.875 31.5 27.875Z" fill="white"/>
</g>
<g filter="url(#filter1_d_4_18)">
<path d="M46.5 20.375H41.6512L36.5756 15.2994C36.4018 15.1249 36.1952 14.9866 35.9677 14.8923C35.7402 14.798 35.4963 14.7496 35.25 14.75H27.75C27.5037 14.7496 27.2598 14.798 27.0323 14.8923C26.8048 14.9866 26.5982 15.1249 26.4244 15.2994L21.3487 20.375H16.5C14.4319 20.375 12.75 22.0569 12.75 24.125V44.75C12.75 46.8181 14.4319 48.5 16.5 48.5H46.5C48.5681 48.5 50.25 46.8181 50.25 44.75V24.125C50.25 22.0569 48.5681 20.375 46.5 20.375ZM31.5 42.875C26.4187 42.875 22.125 38.5812 22.125 33.5C22.125 28.4187 26.4187 24.125 31.5 24.125C36.5813 24.125 40.875 28.4187 40.875 33.5C40.875 38.5812 36.5813 42.875 31.5 42.875Z" fill="white"/>
</g>
</g>
<defs>
<filter id="filter0_d_4_18" x="21.875" y="25.875" width="19.25" height="19.25" filterUnits="userSpaceOnUse" color-interpolation-filters="sRGB">
<feFlood flood-opacity="0" result="BackgroundImageFix"/>
<feColorMatrix in="SourceAlpha" type="matrix" values="0 0 0 0 0 0 0 0 0 0 0 0 0 0 0 0 0 0 127 0" result="hardAlpha"/>
<feOffset dy="2"/>
<feGaussianBlur stdDeviation="2"/>
<feComposite in2="hardAlpha" operator="out"/>
<feColorMatrix type="matrix" values="0 0 0 0 0 0 0 0 0 0 0 0 0 0 0 0 0 0 0.25 0"/>
<feBlend mode="normal" in2="BackgroundImageFix" result="effect1_dropShadow_4_18"/>
<feBlend mode="normal" in="SourceGraphic" in2="effect1_dropShadow_4_18" result="shape"/>
</filter>
<filter id="filter1_d_4_18" x="8.75" y="12.75" width="45.5" height="41.75" filterUnits="userSpaceOnUse" color-interpolation-filters="sRGB">
<feFlood flood-opacity="0" result="BackgroundImageFix"/>
<feColorMatrix in="SourceAlpha" type="matrix" values="0 0 0 0 0 0 0 0 0 0 0 0 0 0 0 0 0 0 127 0" result="hardAlpha"/>
<feOffset dy="2"/>
<feGaussianBlur stdDeviation="2"/>
<feComposite in2="hardAlpha" operator="out"/>
<feColorMatrix type="matrix" values="0 0 0 0 0 0 0 0 0 0 0 0 0 0 0 0 0 0 0.25 0"/>
<feBlend mode="normal" in2="BackgroundImageFix" result="effect1_dropShadow_4_18"/>
<feBlend mode="normal" in="SourceGraphic" in2="effect1_dropShadow_4_18" result="shape"/>
</filter>
<linearGradient id="paint0_linear_4_18" x1="31.4118" y1="0" x2="31.4118" y2="65" gradientUnits="userSpaceOnUse">
<stop stop-color="#858585"/>
<stop offset="1" stop-color="#606060"/>
</linearGradient>
<clipPath id="clip0_4_18">
<rect width="45" height="42" fill="white" transform="translate(9 11)"/>
</clipPath>
</defs>
</svg>
