<svg width="65" height="65" viewBox="0 0 65 65" fill="none" xmlns="http://www.w3.org/2000/svg">
<rect width="65" height="65" rx="10" fill="url(#paint0_linear_8_46)"/>
<g filter="url(#filter0_d_8_46)">
<path d="M15.9375 48.75C15.5894 48.75 15.2556 48.6117 15.0094 48.3656C14.7633 48.1194 14.625 47.7856 14.625 47.4375V18.5625C14.625 18.2144 14.7633 17.8806 15.0094 17.6344C15.2556 17.3883 15.5894 17.25 15.9375 17.25H50.0625C50.4106 17.25 50.7444 17.3883 50.9906 17.6344C51.2367 17.8806 51.375 18.2144 51.375 18.5625V47.4375C51.375 47.7856 51.2367 48.1194 50.9906 48.3656C50.7444 48.6117 50.4106 48.75 50.0625 48.75H15.9375ZM28.8787 39.3787L26.0516 36.5516C25.8055 36.3056 25.4717 36.1673 25.1237 36.1673C24.7757 36.1673 24.4419 36.3056 24.1957 36.5516L17.25 43.5026H49.1884L39.258 31.5851C39.1348 31.437 38.9806 31.3177 38.8061 31.2359C38.6317 31.1541 38.4414 31.1116 38.2487 31.1116C38.056 31.1116 37.8657 31.1541 37.6913 31.2359C37.5168 31.3177 37.3625 31.437 37.2394 31.5851L30.816 39.2921C30.6992 39.4323 30.5544 39.5466 30.3909 39.6276C30.2274 39.7087 30.0488 39.7547 29.8665 39.7629C29.6842 39.771 29.5022 39.7411 29.3321 39.6749C29.1621 39.6088 29.0076 39.5079 28.8787 39.3787ZM22.5 27.75C22.5002 28.2673 22.6022 28.7794 22.8003 29.2572C22.9984 29.735 23.2887 30.1691 23.6546 30.5348C24.0205 30.9004 24.4548 31.1904 24.9327 31.3882C25.4107 31.586 25.9229 31.6877 26.4401 31.6875C26.9574 31.6873 27.4695 31.5853 27.9473 31.3872C28.4252 31.1891 28.8593 30.8988 29.2249 30.5329C29.5905 30.167 29.8805 29.7327 30.0783 29.2548C30.2761 28.7768 30.3778 28.2646 30.3776 27.7474C30.3773 26.7027 29.962 25.701 29.223 24.9626C28.4841 24.2242 27.4821 23.8095 26.4375 23.8099C25.3929 23.8102 24.3911 24.2255 23.6527 24.9645C22.9143 25.7034 22.4997 26.7054 22.5 27.75Z" fill="white"/>
</g>
<defs>
<filter id="filter0_d_8_46" x="10.625" y="15.25" width="44.75" height="39.5" filterUnits="userSpaceOnUse" color-interpolation-filters="sRGB">
<feFlood flood-opacity="0" result="BackgroundImageFix"/>
<feColorMatrix in="SourceAlpha" type="matrix" values="0 0 0 0 0 0 0 0 0 0 0 0 0 0 0 0 0 0 127 0" result="hardAlpha"/>
<feOffset dy="2"/>
<feGaussianBlur stdDeviation="2"/>
<feComposite in2="hardAlpha" operator="out"/>
<feColorMatrix type="matrix" values="0 0 0 0 0 0 0 0 0 0 0 0 0 0 0 0 0 0 0.25 0"/>
<feBlend mode="normal" in2="BackgroundImageFix" result="effect1_dropShadow_8_46"/>
<feBlend mode="normal" in="SourceGraphic" in2="effect1_dropShadow_8_46" result="shape"/>
</filter>
<linearGradient id="paint0_linear_8_46" x1="32.5" y1="0" x2="32.5" y2="65" gradientUnits="userSpaceOnUse">
<stop stop-color="#E474CC"/>
<stop offset="1" stop-color="#CD305F"/>
</linearGradient>
</defs>
</svg>
