<svg width="62" height="65" viewBox="0 0 62 65" fill="none" xmlns="http://www.w3.org/2000/svg">
<rect width="61.1765" height="65" rx="10" fill="url(#paint0_linear_102_2)"/>
<g clip-path="url(#clip0_102_2)">
<g filter="url(#filter0_d_102_2)">
<path d="M49.5 25.64V40.9062C49.5001 42.4628 48.9046 43.9603 47.8356 45.0917C46.7666 46.2231 45.3053 46.9025 43.7513 46.9906L43.4062 47H18.0938C16.5372 47.0001 15.0397 46.4046 13.9083 45.3356C12.7769 44.2666 12.0975 42.8053 12.0094 41.2513L12 40.9062V25.64L30.0975 35.12C30.2988 35.2255 30.5227 35.2805 30.75 35.2805C30.9773 35.2805 31.2012 35.2255 31.4025 35.12L49.5 25.64ZM18.0938 17H43.4062C44.9167 16.9998 46.3734 17.5606 47.4938 18.5736C48.6142 19.5866 49.3185 20.9797 49.47 22.4825L30.75 32.2888L12.03 22.4825C12.1754 21.0393 12.8307 19.6953 13.8783 18.6921C14.9258 17.6889 16.2969 17.0922 17.745 17.0094L18.0938 17H43.4062H18.0938Z" fill="white"/>
</g>
</g>
<defs>
<filter id="filter0_d_102_2" x="8" y="15" width="45.5" height="38" filterUnits="userSpaceOnUse" color-interpolation-filters="sRGB">
<feFlood flood-opacity="0" result="BackgroundImageFix"/>
<feColorMatrix in="SourceAlpha" type="matrix" values="0 0 0 0 0 0 0 0 0 0 0 0 0 0 0 0 0 0 127 0" result="hardAlpha"/>
<feOffset dy="2"/>
<feGaussianBlur stdDeviation="2"/>
<feComposite in2="hardAlpha" operator="out"/>
<feColorMatrix type="matrix" values="0 0 0 0 0 0 0 0 0 0 0 0 0 0 0 0 0 0 0.25 0"/>
<feBlend mode="normal" in2="BackgroundImageFix" result="effect1_dropShadow_102_2"/>
<feBlend mode="normal" in="SourceGraphic" in2="effect1_dropShadow_102_2" result="shape"/>
</filter>
<linearGradient id="paint0_linear_102_2" x1="30.5882" y1="0" x2="30.5882" y2="65" gradientUnits="userSpaceOnUse">
<stop stop-color="#60C2E1"/>
<stop offset="1" stop-color="#1874CA"/>
</linearGradient>
<clipPath id="clip0_102_2">
<rect width="45" height="36" fill="white" transform="translate(9 14)"/>
</clipPath>
</defs>
</svg>
