<svg width="62" height="65" viewBox="0 0 62 65" fill="none" xmlns="http://www.w3.org/2000/svg">
<rect width="61.1765" height="65" rx="10" fill="url(#paint0_linear_20_2)"/>
<g clip-path="url(#clip0_20_2)">
<g filter="url(#filter0_d_20_2)">
<path d="M39.5 11C39.8625 11 40.2127 11.1313 40.4859 11.3695C40.759 11.6078 40.9367 11.9369 40.986 12.296L41 12.5V13.998H42.498C43.6915 13.998 44.8361 14.4721 45.68 15.316C46.5239 16.1599 46.998 17.3045 46.998 18.498V39H39.49L39.182 39.01C38.0999 39.0844 37.0811 39.547 36.3131 40.3129C35.5451 41.0787 35.0795 42.0962 35.002 43.178L34.99 43.5V51.01H18.508C17.3145 51.01 16.1699 50.5359 15.326 49.692C14.4821 48.8481 14.008 47.7035 14.008 46.51L14.004 18.5C14.004 17.3065 14.4781 16.1619 15.322 15.318C16.1659 14.4741 17.3105 14 18.504 14L19.998 13.998L20 12.5C20.0001 12.12 20.1445 11.7541 20.4039 11.4764C20.6634 11.1987 21.0186 11.0298 21.3978 11.0039C21.7769 10.978 22.1518 11.097 22.4466 11.3369C22.7414 11.5767 22.9342 11.9195 22.986 12.296L23 12.5V13.998H29V12.5C28.9961 12.1172 29.1387 11.7475 29.3985 11.4664C29.6584 11.1854 30.0159 11.0143 30.3977 10.9882C30.7796 10.9622 31.157 11.0831 31.4527 11.3262C31.7483 11.5693 31.9398 11.9163 31.988 12.296L32.002 12.5V13.998H37.996L37.998 12.5C37.998 12.1022 38.156 11.7206 38.4373 11.4393C38.7186 11.158 39.1002 11 39.498 11H39.5ZM46.12 42L37.988 50.13L37.99 43.5L38.004 43.296C38.0485 42.9717 38.1979 42.6709 38.4294 42.4394C38.6609 42.2079 38.9617 42.0585 39.286 42.014L39.49 42H46.118H46.12ZM29.494 39H21.5L21.296 39.014C20.937 39.0634 20.608 39.2411 20.3698 39.5143C20.1317 39.7874 20.0005 40.1376 20.0005 40.5C20.0005 40.8624 20.1317 41.2126 20.3698 41.4857C20.608 41.7589 20.937 41.9366 21.296 41.986L21.5 42H29.496L29.7 41.986C30.059 41.9366 30.388 41.7589 30.6262 41.4857C30.8643 41.2126 30.9955 40.8624 30.9955 40.5C30.9955 40.1376 30.8643 39.7874 30.6262 39.5143C30.388 39.2411 30.059 39.0634 29.7 39.014L29.496 39H29.494ZM39.494 31H21.5L21.296 31.014C20.937 31.0634 20.608 31.2411 20.3698 31.5143C20.1317 31.7874 20.0005 32.1376 20.0005 32.5C20.0005 32.8624 20.1317 33.2126 20.3698 33.4857C20.608 33.7589 20.937 33.9366 21.296 33.986L21.5 34H39.496L39.7 33.986C40.059 33.9366 40.388 33.7589 40.6262 33.4857C40.8643 33.2126 40.9955 32.8624 40.9955 32.5C40.9955 32.1376 40.8643 31.7874 40.6262 31.5143C40.388 31.2411 40.059 31.0634 39.7 31.014L39.496 31H39.494ZM39.494 23H21.5L21.296 23.014C20.937 23.0634 20.608 23.2411 20.3698 23.5143C20.1317 23.7874 20.0005 24.1376 20.0005 24.5C20.0005 24.8624 20.1317 25.2126 20.3698 25.4857C20.608 25.7589 20.937 25.9366 21.296 25.986L21.5 26H39.496L39.7 25.986C40.059 25.9366 40.388 25.7589 40.6262 25.4857C40.8643 25.2126 40.9955 24.8624 40.9955 24.5C40.9955 24.1376 40.8643 23.7874 40.6262 23.5143C40.388 23.2411 40.059 23.0634 39.7 23.014L39.496 23H39.494Z" fill="white"/>
</g>
</g>
<defs>
<filter id="filter0_d_20_2" x="10.004" y="8.98474" width="40.994" height="48.0253" filterUnits="userSpaceOnUse" color-interpolation-filters="sRGB">
<feFlood flood-opacity="0" result="BackgroundImageFix"/>
<feColorMatrix in="SourceAlpha" type="matrix" values="0 0 0 0 0 0 0 0 0 0 0 0 0 0 0 0 0 0 127 0" result="hardAlpha"/>
<feOffset dy="2"/>
<feGaussianBlur stdDeviation="2"/>
<feComposite in2="hardAlpha" operator="out"/>
<feColorMatrix type="matrix" values="0 0 0 0 0 0 0 0 0 0 0 0 0 0 0 0 0 0 0.25 0"/>
<feBlend mode="normal" in2="BackgroundImageFix" result="effect1_dropShadow_20_2"/>
<feBlend mode="normal" in="SourceGraphic" in2="effect1_dropShadow_20_2" result="shape"/>
</filter>
<linearGradient id="paint0_linear_20_2" x1="30.5882" y1="0" x2="30.5882" y2="65" gradientUnits="userSpaceOnUse">
<stop stop-color="#FFCB67"/>
<stop offset="1" stop-color="#F99336"/>
</linearGradient>
<clipPath id="clip0_20_2">
<rect width="48" height="51" fill="white" transform="translate(7 6)"/>
</clipPath>
</defs>
</svg>
