<svg width="62" height="65" viewBox="0 0 62 65" fill="none" xmlns="http://www.w3.org/2000/svg">
<rect width="61.1765" height="65" rx="10" fill="url(#paint0_linear_120_2)"/>
<path d="M45.2125 26.8625C43.9364 26.8318 42.6801 26.5397 41.5212 26.0044C40.3624 25.469 39.3256 24.7018 38.475 23.75C38.9316 25.6926 38.6664 27.7349 37.7288 29.4965C36.7912 31.258 35.2452 32.6186 33.3787 33.3248C31.5123 34.0309 29.4529 34.0344 27.584 33.3347C25.7152 32.635 24.1645 31.2797 23.2209 29.5213C22.2773 27.763 22.0051 25.7216 22.455 23.7775C22.9049 21.8333 24.0463 20.1191 25.6665 18.9541C27.2866 17.7891 29.2751 17.2529 31.2613 17.4453C33.2476 17.6377 35.0961 18.5457 36.4625 20C35.9103 17.9969 36.0468 15.8663 36.85 13.95C34.612 12.8691 32.1362 12.3739 29.6546 12.5106C27.173 12.6473 24.7667 13.4115 22.6609 14.7316C20.5551 16.0518 18.8188 17.8847 17.6145 20.0589C16.4102 22.233 15.7772 24.6771 15.775 27.1625C15.775 33 19.05 37.8875 21.45 41.45L21.8875 42.1C24.2753 45.5608 26.837 48.8984 29.5625 52.1L30.5125 53.2125L31.4625 52.1C34.1877 48.8981 36.7493 45.5605 39.1375 42.1L39.575 41.4375C41.9625 37.875 45.2375 33 45.2375 27.1625C45.225 27.0625 45.2125 26.9625 45.2125 26.8625V26.8625Z" fill="white"/>
<path d="M30.5 30.2125C33.075 30.2125 35.1625 28.125 35.1625 25.55C35.1625 22.975 33.075 20.8875 30.5 20.8875C27.925 20.8875 25.8375 22.975 25.8375 25.55C25.8375 28.125 27.925 30.2125 30.5 30.2125Z" fill="white"/>
<path d="M45.5 23.75C48.9518 23.75 51.75 20.9518 51.75 17.5C51.75 14.0482 48.9518 11.25 45.5 11.25C42.0482 11.25 39.25 14.0482 39.25 17.5C39.25 20.9518 42.0482 23.75 45.5 23.75Z" fill="#E45959"/>
<defs>
<linearGradient id="paint0_linear_120_2" x1="30.5882" y1="0" x2="30.5882" y2="65" gradientUnits="userSpaceOnUse">
<stop stop-color="#50B673"/>
<stop offset="1" stop-color="#0987FB"/>
</linearGradient>
</defs>
</svg>
