<svg width="65" height="65" viewBox="0 0 65 65" fill="none" xmlns="http://www.w3.org/2000/svg">
<rect width="65" height="65" rx="10" fill="url(#paint0_linear_4_18)"/>
<g clip-path="url(#clip0_4_18)">
<g filter="url(#filter0_d_4_18)">
<path d="M35.189 49.6415H28.8109C28.4112 49.6415 28.0236 49.508 27.7122 49.2629C27.4008 49.0179 27.1845 48.676 27.0989 48.2942L26.3858 45.0647C25.4344 44.6569 24.5323 44.147 23.6961 43.5443L20.4772 44.547C20.0962 44.6659 19.6851 44.6537 19.3122 44.5124C18.9393 44.3712 18.627 44.1094 18.4271 43.7705L15.231 38.3692C15.0333 38.0301 14.9591 37.6353 15.0205 37.2495C15.0819 36.8637 15.2754 36.5097 15.5692 36.2454L18.0662 34.017C17.9526 33.0076 17.9526 31.989 18.0662 30.9796L15.5692 28.7563C15.275 28.4919 15.0812 28.1376 15.0198 27.7515C14.9584 27.3653 15.0328 26.9701 15.231 26.6308L18.4201 21.2261C18.6199 20.8872 18.9323 20.6254 19.3052 20.4842C19.6781 20.3429 20.0892 20.3307 20.4702 20.4496L23.6891 21.4523C24.1166 21.1438 24.5617 20.8558 25.0208 20.5953C25.4641 20.3519 25.9197 20.1307 26.3858 19.9336L27.1007 16.7076C27.1858 16.3257 27.4018 15.9837 27.7128 15.7383C28.0239 15.493 28.4113 15.359 28.8109 15.3586H35.189C35.5886 15.359 35.976 15.493 36.2871 15.7383C36.5981 15.9837 36.8141 16.3257 36.8992 16.7076L37.6211 19.9353C38.1118 20.1479 38.5919 20.3861 39.0562 20.6518C39.489 20.897 39.9078 21.1661 40.3108 21.4558L43.5314 20.453C43.9122 20.3346 44.3229 20.347 44.6954 20.4882C45.068 20.6295 45.38 20.891 45.5798 21.2295L48.7689 26.6342C49.1754 27.3319 49.0352 28.2146 48.4307 28.758L45.9337 30.9864C46.0473 31.9959 46.0473 33.0144 45.9337 34.0239L48.4307 36.2523C49.0352 36.7974 49.1754 37.6784 48.7689 38.3761L45.5798 43.7808C45.3799 44.1197 45.0676 44.3815 44.6947 44.5227C44.3218 44.664 43.9107 44.6762 43.5297 44.5573L40.3108 43.5545C39.4752 44.1568 38.5737 44.6662 37.6229 45.0733L36.8992 48.2942C36.8137 48.6758 36.5976 49.0173 36.2866 49.2624C35.9756 49.5074 35.5884 49.6411 35.189 49.6415V49.6415ZM31.9929 25.6434C30.134 25.6434 28.3513 26.3658 27.0369 27.6517C25.7224 28.9375 24.984 30.6815 24.984 32.5C24.984 34.3185 25.7224 36.0625 27.0369 37.3483C28.3513 38.6342 30.134 39.3566 31.9929 39.3566C33.8518 39.3566 35.6346 38.6342 36.949 37.3483C38.2634 36.0625 39.0019 34.3185 39.0019 32.5C39.0019 30.6815 38.2634 28.9375 36.949 27.6517C35.6346 26.3658 33.8518 25.6434 31.9929 25.6434V25.6434Z" fill="white"/>
</g>
</g>
<defs>
<filter id="filter0_d_4_18" x="10.9988" y="13.3586" width="42.0012" height="42.2829" filterUnits="userSpaceOnUse" color-interpolation-filters="sRGB">
<feFlood flood-opacity="0" result="BackgroundImageFix"/>
<feColorMatrix in="SourceAlpha" type="matrix" values="0 0 0 0 0 0 0 0 0 0 0 0 0 0 0 0 0 0 127 0" result="hardAlpha"/>
<feOffset dy="2"/>
<feGaussianBlur stdDeviation="2"/>
<feComposite in2="hardAlpha" operator="out"/>
<feColorMatrix type="matrix" values="0 0 0 0 0 0 0 0 0 0 0 0 0 0 0 0 0 0 0.25 0"/>
<feBlend mode="normal" in2="BackgroundImageFix" result="effect1_dropShadow_4_18"/>
<feBlend mode="normal" in="SourceGraphic" in2="effect1_dropShadow_4_18" result="shape"/>
</filter>
<linearGradient id="paint0_linear_4_18" x1="32.5" y1="0" x2="32.5" y2="65" gradientUnits="userSpaceOnUse">
<stop stop-color="#B7B7B7"/>
<stop offset="1" stop-color="#868686"/>
</linearGradient>
<clipPath id="clip0_4_18">
<rect width="46" height="45" fill="white" transform="translate(9 10)"/>
</clipPath>
</defs>
</svg>
