<svg width="62" height="65" viewBox="0 0 62 65" fill="none" xmlns="http://www.w3.org/2000/svg">
<rect x="0.823578" width="61.1765" height="65" rx="10" fill="url(#paint0_linear_12_32)"/>
<g clip-path="url(#clip0_12_32)">
<g filter="url(#filter0_d_12_32)">
<path d="M40.7939 12.995C37.8378 13.8971 35.2479 15.8178 33.4316 18.455C34.7871 15.7657 36.4464 13.2622 38.3728 11C35.6302 12.9422 33.37 15.5598 31.7845 18.63L32.8386 14.1675C31.23 17.0412 30.1669 20.222 29.7092 23.53L31.5539 24.37C34.1564 20.1685 37.2625 16.3447 40.7939 12.995ZM42.1445 35.8658C40.7939 33.2058 37.3351 30.5983 33.6951 28.1833C32.8551 27.6583 32.6904 25.7158 32.8222 24.8758L31.9822 24.4558C31.8203 25.8551 31.9097 27.2743 32.2457 28.6383C32.641 29.9508 33.8928 31.4383 34.7492 33.5383C35.2768 35.2038 35.6735 36.913 35.9351 38.6483C36.4373 42.2423 36.1325 45.9115 35.0457 49.3565C34.579 50.6927 33.7616 51.8587 32.6904 52.7165L32.2951 52.9965C39.1469 53.224 46.8386 44.8958 42.1445 35.8658ZM33.2504 44.2465C33.1917 43.0488 32.9583 41.8681 32.5586 40.7465C32.1991 39.8787 31.7864 39.0369 31.3233 38.2265C31.0454 37.0432 30.9563 35.8187 31.0598 34.604C31.0843 35.7564 31.2617 36.8993 31.5869 37.999C32.0127 38.7297 32.3924 39.4897 32.7233 40.274C33.209 41.5475 33.5357 42.883 33.6951 44.2465C33.7437 46.017 33.5495 47.7855 33.1186 49.4965C32.9577 50.1029 32.7368 50.6895 32.4598 51.2465C32.9863 50.4375 33.3764 49.5374 33.6128 48.5865C34.2575 46.0332 34.4585 43.3764 34.2057 40.7465C34.0407 39.6234 33.7872 38.517 33.448 37.439C32.7233 35.339 31.6857 33.5365 31.5539 33.1165C31.1475 31.1862 30.9322 29.2161 30.9116 27.2383C30.9632 29.081 31.2063 30.9121 31.6363 32.6983C31.768 33.1183 32.9539 35.1133 33.7775 37.2133C34.1546 38.185 34.42 39.2015 34.568 40.2408C34.977 43.2807 34.6772 46.3809 33.6951 49.269C33.5539 49.7687 33.3605 50.25 33.1186 50.704C33.7232 49.9944 34.1731 49.1519 34.4363 48.2365C35.5733 43.5828 35.5733 38.6977 34.4363 34.044C33.7445 31.804 32.1139 29.844 31.7186 28.4983C31.4694 27.1199 31.425 25.7087 31.5869 24.3158L28.0457 22.5658C28.968 25.0858 29.1328 27.0458 28.1775 27.8158C24.4551 31.0883 18.2968 34.8158 18.2968 40.2583C18.2968 46.0665 21.5909 52.3473 29.9085 52.8198C28.9551 52.5618 28.0196 52.2344 27.1085 51.8398C26.2837 51.5003 25.5449 50.961 24.9509 50.2648L24.7368 50.0198C23.2028 48.1866 22.077 46.01 21.4426 43.6515C21.1604 42.7964 21.1147 41.8733 21.3109 40.9915C21.7281 39.5017 22.4208 38.1153 23.3484 36.9133C24.2761 35.7114 25.42 34.7181 26.7132 33.9915C27.2812 33.6698 27.8312 33.3134 28.3603 32.924C29.1344 32.4165 29.6285 30.2465 30.1391 28.4965C29.8756 29.844 29.5791 32.4515 28.3932 33.4315C27.9156 33.8165 27.3885 34.184 26.8615 34.5515C24.7532 36.0915 22.6779 37.5265 21.6403 41.219C21.495 42.0231 21.5402 42.8531 21.772 43.634C22.4098 45.9051 23.5059 48.0013 24.9838 49.7765C24.9838 49.7765 25.1979 50.004 25.1979 50.0565C25.9761 51.1434 27.1223 51.8653 28.3932 52.069C27.9156 51.789 27.5203 51.4565 27.1744 51.229C26.1793 50.5486 25.3578 49.6174 24.7831 48.5183C24.2084 47.4192 23.8983 46.1862 23.8803 44.929C23.875 43.6772 24.2113 42.4506 24.8486 41.3977C25.4858 40.3448 26.3967 39.5107 27.4709 38.9965C28.1811 38.5471 28.7945 37.9441 29.2712 37.2266C29.7479 36.509 30.0772 35.693 30.2379 34.8315C30.1769 35.7342 29.9056 36.6067 29.4485 37.3704C28.9913 38.134 28.3627 38.765 27.6191 39.2065C26.6546 39.7536 25.8334 40.5472 25.2296 41.5156C24.6258 42.4841 24.2583 43.597 24.1603 44.754C24.5037 47.0658 25.6066 49.1737 27.2732 50.704C28.0504 51.3198 28.9438 51.7496 29.892 51.964C29.5964 51.7071 29.331 51.4133 29.1015 51.089C28.7948 50.5363 28.5462 49.9494 28.3603 49.339C28.1177 48.7875 27.9672 48.1953 27.9156 47.589C27.7987 46.118 28.1718 44.6501 28.9697 43.4415C29.6695 42.8239 30.1847 42.0029 30.452 41.079C30.3125 42.0654 29.8997 42.9853 29.2662 43.7215C28.8764 44.2778 28.5941 44.9106 28.4358 45.5834C28.2775 46.2563 28.2462 46.9558 28.3438 47.6415C28.441 48.2024 28.6013 48.7488 28.8215 49.269C29.0226 49.8914 29.3054 50.4805 29.6615 51.019C29.9579 51.3865 30.0897 51.6665 30.5673 51.859C31.0751 50.5535 31.3488 49.1588 31.3744 47.7465C31.4639 46.722 31.4639 45.691 31.3744 44.6665C31.1603 43.2665 30.7156 41.8665 30.7156 40.7465C30.9132 41.779 31.4238 43.1615 31.7203 44.614C31.9274 45.6072 31.9885 46.6284 31.9015 47.6415C31.9015 48.6215 31.7697 49.3915 31.6379 50.249C31.5293 50.8511 31.2737 51.4123 30.8968 51.8765C31.89 50.9879 32.5407 49.7421 32.725 48.3765C33.0961 47.036 33.2721 45.6436 33.2504 44.2465Z" fill="white"/>
</g>
</g>
<defs>
<filter id="filter0_d_12_32" x="14.2968" y="9" width="33.2893" height="50.0011" filterUnits="userSpaceOnUse" color-interpolation-filters="sRGB">
<feFlood flood-opacity="0" result="BackgroundImageFix"/>
<feColorMatrix in="SourceAlpha" type="matrix" values="0 0 0 0 0 0 0 0 0 0 0 0 0 0 0 0 0 0 127 0" result="hardAlpha"/>
<feOffset dy="2"/>
<feGaussianBlur stdDeviation="2"/>
<feComposite in2="hardAlpha" operator="out"/>
<feColorMatrix type="matrix" values="0 0 0 0 0 0 0 0 0 0 0 0 0 0 0 0 0 0 0.25 0"/>
<feBlend mode="normal" in2="BackgroundImageFix" result="effect1_dropShadow_12_32"/>
<feBlend mode="normal" in="SourceGraphic" in2="effect1_dropShadow_12_32" result="shape"/>
</filter>
<linearGradient id="paint0_linear_12_32" x1="31.4118" y1="0" x2="31.4118" y2="65" gradientUnits="userSpaceOnUse">
<stop stop-color="#B599F0"/>
<stop offset="1" stop-color="#813DD9"/>
</linearGradient>
<clipPath id="clip0_12_32">
<rect width="40" height="47" fill="white" transform="translate(11 11)"/>
</clipPath>
</defs>
</svg>
